<?xml version="1.0" standalone="no"?><!DOCTYPE svg PUBLIC "-//W3C//DTD SVG 1.1//EN" "http://www.w3.org/Graphics/SVG/1.1/DTD/svg11.dtd"><svg t="1731911033760" class="icon" viewBox="0 0 1026 1024" version="1.1" xmlns="http://www.w3.org/2000/svg" p-id="15885" xmlns:xlink="http://www.w3.org/1999/xlink" width="200.390625" height="200"><path d="M849.38752 630.39488c-185.387008-96.466944-287.9488-16.402432-299.319296 83.05664-45.819904 17.362944-92.93824 43.487232-140.947456 78.800896 12.578816-52.393984 19.810304-103.911424 21.303296-153.677824 133.912576-58.656768 198.764544-239.09376-31.279104-435.724288C255.68256 80.224256 1.024 101.378048 1.024 101.378048s117.356544 90.33728 154.351616 222.255104c24.305664 86.687744 21.065728 184.840192 68.098048 252.932096 24.113152 34.916352 75.450368 101.029888 176.0768 73.078784-2.717696 41.05216-9.27744 85.465088-20.3776 133.531648-37.644288-37.005312-81.385472-69.16096-131.20512-96.256-6.25664-3.405824-4.349952 0.208896 0.59392 3.835904 85.06368 62.480384 151.402496 138.30144 195.004416 233.25696 9.590784-5.136384 20.023296-9.65632 31.1296-13.40416-16.072704-29.917184-34.988032-57.675776-56.141824-83.685376 45.45536-40.620032 88.997888-69.568512 130.578432-89.255936 2.809856 86.286336 65.86368 104.37632 97.458176 111.4624 58.322944 13.074432 123.185152-15.642624 187.809792-22.806528 98.373632-10.891264 190.623744 43.266048 190.623744 43.266048S970.303488 693.315584 849.38752 630.39488zM400.922624 618.571776c-80.531456 26.771456-122.789888-14.219264-153.43616-58.58304-26.918912-39.000064-35.545088-92.012544-44.654592-148.144128-5.132288-31.637504-10.461184-64.354304-19.36384-96.090112-22.304768-79.546368-94.404608-164.790272-140.619776-198.83008 89.995264 4.046848 249.483264 33.015808 337.321984 108.105728 117.536768 100.458496 142.21312 184.256512 142.21312 236.8512-0.01024 61.157376-34.65216 114.665472-91.758592 144.259072-3.366912-158.765056-68.009984-296.894464-207.548416-383.688704-4.683776-2.910208-3.3792-0.032768 0.292864 2.998272C312.09472 298.952704 405.010432 415.227904 400.922624 618.571776zM832.09216 805.380096c-23.662592 2.623488-47.015936 7.903232-69.59104 13.019136-40.05888 9.07264-77.918208 17.647616-111.3088 10.151936-39.315456-8.808448-79.699968-26.78784-81.11104-93.292544-0.049152-2.304 0.028672-4.564992 0.08192-6.834176 122.228736-49.600512 226.768896-20.031488 311.621632 25.8048 3.008512 1.642496 5.308416 1.742848 2.08896-0.606208-90.63424-66.162688-196.630528-84.754432-311.361536-48.062464 7.671808-40.347648 32.93184-72.667136 70.0416-87.658496 35.231744-14.231552 98.043904-20.361216 197.093376 31.184896 74.05568 38.539264 136.59136 137.529344 163.659776 196.702208C968.005632 824.05376 891.408384 798.810112 832.09216 805.380096z" fill="#44AF35" p-id="15886"></path></svg>